<?xml version="1.0"?>
<svg xmlns="http://www.w3.org/2000/svg" height="512px" viewBox="-35 0 512 512.00011" width="512px"><g><path d="m256.710938 208.007812c72.875-56.695312 37.300781-128.117187-37.914063-128.117187-48.371094 0-72.433594 29.394531-72.433594 51.667969 0 17.078125 14.054688 26.292968 27.277344 26.292968 11.472656 0 16.570313-7.519531 20.292969-13.007812 4.5-6.640625 8.390625-12.375 23.875-12.375 6.664062 0 22.164062 1.453125 22.164062 14.914062 0 26.277344-51.417968 26.859376-51.417968 87.351563 0 14.628906 3.042968 29.582031 25.628906 29.582031 24.320312 0 26.945312-14.695312 26.945312-21.015625.003906-15.871093.003906-23.113281 15.582032-35.292969zm-30.582032 35.292969c0 1.953125 0 6.015625-11.945312 6.015625-6.757813 0-7.988282-1.464844-8.394532-1.945312-1.019531-1.210938-2.234374-4.386719-2.234374-12.640625 0-24.34375 9.847656-36.117188 19.4375-44.382813 10.679687-9.058594 31.984374-21.078125 31.984374-42.964844 0-18.171874-14.589843-29.914062-37.167968-29.914062-23.4375 0-31.171875 11.410156-36.292969 18.957031-3.585937 5.289063-4.65625 6.425781-7.875 6.425781-4.246094 0-12.277344-2.359374-12.277344-11.289062 0-13.703125 17.300781-36.671875 57.4375-36.671875 60.867188 0 90.359375 53.316406 28.6875 101.289063-20.363281 15.835937-21.359375 28.414062-21.359375 47.121093zm0 0" data-original="#000000" class="active-path" data-old_color="#000000" fill="#FFD8D8"/><path d="m214.511719 272.058594c-17.945313 0-32.550781 14.75-32.550781 32.878906 0 18.132812 14.605468 32.882812 32.550781 32.882812 18.132812 0 32.882812-14.75 32.882812-32.882812 0-18.128906-14.75-32.878906-32.882812-32.878906zm0 50.761718c-9.675781 0-17.550781-8.023437-17.550781-17.882812 0-9.855469 7.875-17.878906 17.550781-17.878906 9.695312 0 17.882812 8.191406 17.882812 17.878906 0 9.695312-8.1875 17.882812-17.882812 17.882812zm0 0" data-original="#000000" class="active-path" data-old_color="#000000" fill="#FFD8D8"/><path d="m442.929688 42.972656c0-23.695312-19.277344-42.972656-42.972657-42.972656h-160.992187c-4.144532 0-7.5 3.359375-7.5 7.5 0 4.144531 3.355468 7.5 7.5 7.5h160.992187c15.421875 0 27.96875 12.546875 27.96875 27.972656v152.503906c0 4.144532 3.359375 7.5 7.5 7.5 4.144531 0 7.5-3.355468 7.5-7.5v-152.503906zm0 0" data-original="#000000" class="active-path" data-old_color="#000000" fill="#FFD8D8"/><path d="m442.929688 230.480469c0-4.144531-3.359376-7.5-7.5-7.5-4.144532 0-7.503907 3.355469-7.503907 7.5v140.410156c0 15.421875-12.546875 27.96875-27.96875 27.96875h-33.964843c-4.136719 0-8.027344 1.613281-10.949219 4.535156l-93.441407 93.445313c-.125.121094-.230468.226562-.53125.101562-.300781-.121094-.300781-.273437-.300781-.445312v-82.152344c0-8.539062-6.945312-15.484375-15.484375-15.484375h-202.3125c-15.425781 0-27.972656-12.546875-27.972656-27.96875v-327.917969c0-15.425781 12.546875-27.972656 27.972656-27.972656h160.992188c4.140625 0 7.5-3.355469 7.5-7.5 0-4.140625-3.359375-7.5-7.5-7.5h-160.992188c-23.695312 0-42.972656 19.277344-42.972656 42.972656v327.917969c0 23.691406 19.277344 42.96875 42.972656 42.96875h202.3125c.269532 0 .484375.21875.484375.484375v82.152344c0 13.765625 16.695313 20.691406 26.4375 10.949218l93.445313-93.445312c.089844-.089844.210937-.140625.339844-.140625h33.964843c23.695313 0 42.972657-19.277344 42.972657-42.96875zm0 0" data-original="#000000" class="active-path" data-old_color="#000000" fill="#FFD8D8"/></g> </svg>
